<svg width="84" height="84" viewBox="0 0 84 84" fill="none" xmlns="http://www.w3.org/2000/svg">
<g id="ph:seal-check-fill">
<path id="Vector" d="M74.1103 33.7378C72.8733 32.445 71.5936 31.1128 71.1113 29.9414C70.665 28.8684 70.6387 27.09 70.6125 25.3673C70.5633 22.1648 70.5108 18.5358 67.9875 16.0125C65.4642 13.4892 61.8352 13.4367 58.6327 13.3875C56.91 13.3612 55.1316 13.335 54.0586 12.8887C52.8905 12.4064 51.555 11.1267 50.2622 9.88969C47.9981 7.71422 45.4256 5.25 42 5.25C38.5744 5.25 36.0052 7.71422 33.7378 9.88969C32.445 11.1267 31.1128 12.4064 29.9414 12.8887C28.875 13.335 27.09 13.3612 25.3673 13.3875C22.1648 13.4367 18.5358 13.4892 16.0125 16.0125C13.4892 18.5358 13.4531 22.1648 13.3875 25.3673C13.3612 27.09 13.335 28.8684 12.8887 29.9414C12.4064 31.1095 11.1267 32.445 9.88969 33.7378C7.71422 36.0019 5.25 38.5744 5.25 42C5.25 45.4256 7.71422 47.9948 9.88969 50.2622C11.1267 51.555 12.4064 52.8872 12.8887 54.0586C13.335 55.1316 13.3612 56.91 13.3875 58.6327C13.4367 61.8352 13.4892 65.4642 16.0125 67.9875C18.5358 70.5108 22.1648 70.5633 25.3673 70.6125C27.09 70.6387 28.8684 70.665 29.9414 71.1113C31.1095 71.5936 32.445 72.8733 33.7378 74.1103C36.0019 76.2858 38.5744 78.75 42 78.75C45.4256 78.75 47.9948 76.2858 50.2622 74.1103C51.555 72.8733 52.8872 71.5936 54.0586 71.1113C55.1316 70.665 56.91 70.6387 58.6327 70.6125C61.8352 70.5633 65.4642 70.5108 67.9875 67.9875C70.5108 65.4642 70.5633 61.8352 70.6125 58.6327C70.6387 56.91 70.665 55.1316 71.1113 54.0586C71.5936 52.8905 72.8733 51.555 74.1103 50.2622C76.2858 47.9981 78.75 45.4256 78.75 42C78.75 38.5744 76.2858 36.0052 74.1103 33.7378ZM56.9822 35.9822L38.6072 54.3572C38.3634 54.6013 38.0739 54.7949 37.7552 54.927C37.4366 55.0591 37.095 55.1271 36.75 55.1271C36.405 55.1271 36.0635 55.0591 35.7448 54.927C35.4261 54.7949 35.1366 54.6013 34.8928 54.3572L27.0178 46.4822C26.7739 46.2383 26.5805 45.9488 26.4485 45.6301C26.3165 45.3114 26.2485 44.9699 26.2485 44.625C26.2485 44.2801 26.3165 43.9386 26.4485 43.6199C26.5805 43.3012 26.7739 43.0117 27.0178 42.7678C27.5104 42.2753 28.1784 41.9985 28.875 41.9985C29.2199 41.9985 29.5614 42.0665 29.8801 42.1985C30.1988 42.3305 30.4883 42.5239 30.7322 42.7678L36.75 48.7889L53.2678 32.2678C53.5117 32.0239 53.8012 31.8305 54.1199 31.6985C54.4386 31.5665 54.7801 31.4985 55.125 31.4985C55.4699 31.4985 55.8114 31.5665 56.1301 31.6985C56.4488 31.8305 56.7383 32.0239 56.9822 32.2678C57.2261 32.5117 57.4195 32.8012 57.5515 33.1199C57.6835 33.4386 57.7515 33.7801 57.7515 34.125C57.7515 34.4699 57.6835 34.8114 57.5515 35.1301C57.4195 35.4488 57.2261 35.7383 56.9822 35.9822Z" fill="#00C78B"/>
</g>
</svg>
